<svg xmlns="http://www.w3.org/2000/svg" viewBox="0 0 2560 1440" width="2560" height="1440">
  <!-- Definitions for reusable elements -->
  <defs>
    <!-- Gradient backgrounds -->
    <linearGradient id="bgGradient" x1="0%" y1="0%" x2="100%" y2="100%">
      <stop offset="0%" stop-color="#0e0b30" />
      <stop offset="50%" stop-color="#261758" />
      <stop offset="100%" stop-color="#0a0a1e" />
    </linearGradient>
    
    <radialGradient id="glowCenter" cx="50%" cy="50%" r="50%" fx="50%" fy="50%">
      <stop offset="0%" stop-color="#4f4fff" stop-opacity="0.3" />
      <stop offset="100%" stop-color="#0a0a1e" stop-opacity="0" />
    </radialGradient>
    
    <!-- Glow filters -->
    <filter id="blueGlow" x="-20%" y="-20%" width="140%" height="140%">
      <feGaussianBlur stdDeviation="10" result="blur" />
      <feFlood flood-color="#00c8ff" flood-opacity="0.7" />
      <feComposite in2="blur" operator="in" />
      <feComposite in="SourceGraphic" />
    </filter>
    
    <filter id="purpleGlow" x="-20%" y="-20%" width="140%" height="140%">
      <feGaussianBlur stdDeviation="8" result="blur" />
      <feFlood flood-color="#bf00ff" flood-opacity="0.7" />
      <feComposite in2="blur" operator="in" />
      <feComposite in="SourceGraphic" />
    </filter>
    
    <filter id="cyanGlow" x="-20%" y="-20%" width="140%" height="140%">
      <feGaussianBlur stdDeviation="6" result="blur" />
      <feFlood flood-color="#00ffea" flood-opacity="0.6" />
      <feComposite in2="blur" operator="in" />
      <feComposite in="SourceGraphic" />
    </filter>
    
    <filter id="titleGlow" x="-15%" y="-15%" width="130%" height="130%">
      <feGaussianBlur stdDeviation="12" result="blur" />
      <feFlood flood-color="#4d28ff" flood-opacity="0.8" />
      <feComposite in2="blur" operator="in" />
      <feComposite in="SourceGraphic" />
    </filter>
    
    <filter id="whiteGlow" x="-10%" y="-10%" width="120%" height="120%">
      <feGaussianBlur stdDeviation="4" result="blur" />
      <feFlood flood-color="#ffffff" flood-opacity="0.5" />
      <feComposite in2="blur" operator="in" />
      <feComposite in="SourceGraphic" />
    </filter>
    
    <!-- Neural network pattern -->
    <pattern id="neuralPattern" width="400" height="400" patternUnits="userSpaceOnUse">
      <g fill="none" stroke="#5942bd" stroke-width="1.2" opacity="0.2">
        <circle cx="50" cy="50" r="5" />
        <circle cx="150" cy="70" r="5" />
        <circle cx="250" cy="50" r="5" />
        <circle cx="350" cy="90" r="5" />
        <circle cx="70" cy="150" r="5" />
        <circle cx="180" cy="180" r="5" />
        <circle cx="280" cy="150" r="5" />
        <circle cx="350" cy="190" r="5" />
        <circle cx="50" cy="270" r="5" />
        <circle cx="150" cy="290" r="5" />
        <circle cx="250" cy="250" r="5" />
        <circle cx="350" cy="270" r="5" />
        <circle cx="70" cy="350" r="5" />
        <circle cx="170" cy="370" r="5" />
        <circle cx="270" cy="350" r="5" />
        <circle cx="380" cy="380" r="5" />
        
        <!-- Network connections -->
        <path d="M50,50 L150,70 L250,50 L350,90" />
        <path d="M70,150 L180,180 L280,150 L350,190" />
        <path d="M50,270 L150,290 L250,250 L350,270" />
        <path d="M70,350 L170,370 L270,350 L380,380" />
        
        <path d="M50,50 L70,150 L50,270 L70,350" />
        <path d="M150,70 L180,180 L150,290 L170,370" />
        <path d="M250,50 L280,150 L250,250 L270,350" />
        <path d="M350,90 L350,190 L350,270 L380,380" />
        
        <path d="M50,50 L180,180 L250,250 L380,380" opacity="0.1" />
        <path d="M350,90 L180,180 L50,270" opacity="0.1" />
      </g>
    </pattern>
    
    <!-- Binary code pattern -->
    <pattern id="binaryPattern" width="500" height="500" patternUnits="userSpaceOnUse">
      <g fill="#3a3a7a" font-family="Courier New" opacity="0.15">
        <text x="0" y="15" font-size="10">10101000111010101010100011101010</text>
        <text x="0" y="35" font-size="10">01010100011101010101010001110101</text>
        <text x="0" y="55" font-size="10">10101000111010101010100011101010</text>
        <text x="0" y="75" font-size="10">01010100011101010101010001110101</text>
        <text x="0" y="95" font-size="10">10101000111010101010100011101010</text>
        <text x="0" y="115" font-size="10">01010100011101010101010001110101</text>
        <text x="0" y="135" font-size="10">10101000111010101010100011101010</text>
        <text x="0" y="155" font-size="10">01010100011101010101010001110101</text>
        <text x="0" y="175" font-size="10">10101000111010101010100011101010</text>
        <text x="0" y="195" font-size="10">01010100011101010101010001110101</text>
        <text x="0" y="215" font-size="10">10101000111010101010100011101010</text>
        <text x="0" y="235" font-size="10">01010100011101010101010001110101</text>
        <text x="0" y="255" font-size="10">10101000111010101010100011101010</text>
        <text x="0" y="275" font-size="10">01010100011101010101010001110101</text>
        <text x="0" y="295" font-size="10">10101000111010101010100011101010</text>
        <text x="0" y="315" font-size="10">01010100011101010101010001110101</text>
        <text x="0" y="335" font-size="10">10101000111010101010100011101010</text>
        <text x="0" y="355" font-size="10">01010100011101010101010001110101</text>
        <text x="0" y="375" font-size="10">10101000111010101010100011101010</text>
        <text x="0" y="395" font-size="10">01010100011101010101010001110101</text>
        <text x="0" y="415" font-size="10">10101000111010101010100011101010</text>
        <text x="0" y="435" font-size="10">01010100011101010101010001110101</text>
        <text x="0" y="455" font-size="10">10101000111010101010100011101010</text>
        <text x="0" y="475" font-size="10">01010100011101010101010001110101</text>
        <text x="0" y="495" font-size="10">10101000111010101010100011101010</text>
      </g>
    </pattern>
    
    <!-- Digital circuit pattern -->
    <pattern id="circuitPattern" width="300" height="300" patternUnits="userSpaceOnUse">
      <g fill="none" stroke="#3050ff" stroke-width="1" opacity="0.2">
        <path d="M 0,50 H 300 M 0,100 H 300 M 0,150 H 300 M 0,200 H 300 M 0,250 H 300" />
        <path d="M 50,0 V 300 M 100,0 V 300 M 150,0 V 300 M 200,0 V 300 M 250,0 V 300" />
        <circle cx="50" cy="50" r="5" />
        <circle cx="150" cy="50" r="5" />
        <circle cx="250" cy="50" r="5" />
        <circle cx="100" cy="100" r="5" />
        <circle cx="200" cy="100" r="5" />
        <circle cx="50" cy="150" r="5" />
        <circle cx="150" cy="150" r="5" />
        <circle cx="250" cy="150" r="5" />
        <circle cx="100" cy="200" r="5" />
        <circle cx="200" cy="200" r="5" />
        <circle cx="50" cy="250" r="5" />
        <circle cx="150" cy="250" r="5" />
        <circle cx="250" cy="250" r="5" />
        <!-- Circuit connecting lines -->
        <path d="M 50,50 H 150 V 150 H 250" />
        <path d="M 100,100 V 200 H 200 V 100" />
        <path d="M 50,150 H 150 V 250 H 250" />
      </g>
    </pattern>
  </defs>
  
  <!-- Main background -->
  <rect width="2560" height="1440" fill="url(#bgGradient)" />
  
  <!-- Glow effect in center -->
  <circle cx="1280" cy="720" r="800" fill="url(#glowCenter)" opacity="0.5" />
  
  <!-- Binary pattern overlay -->
  <rect width="2560" height="1440" fill="url(#binaryPattern)" opacity="0.3" />
  
  <!-- Neural network pattern overlay -->
  <rect width="2560" height="1440" fill="url(#neuralPattern)" />
  
  <!-- Circuit pattern overlay -->
  <rect width="2560" height="1440" fill="url(#circuitPattern)" opacity="0.4" />
  
  <!-- Hexagon grid pattern for tech feel -->
  <g opacity="0.15">
    <path d="M0,0 L2560,0 L2560,1440 L0,1440 Z" fill="none" stroke="#00a8ff" stroke-width="0.5">
      <animate attributeName="opacity" values="0.1;0.2;0.1" dur="5s" repeatCount="indefinite" />
    </path>
    
    <!-- Horizontal lines -->
    <path d="M0,120 L2560,120" stroke="#00a8ff" stroke-width="0.5" />
    <path d="M0,240 L2560,240" stroke="#00a8ff" stroke-width="0.5" />
    <path d="M0,360 L2560,360" stroke="#00a8ff" stroke-width="0.5" />
    <path d="M0,480 L2560,480" stroke="#00a8ff" stroke-width="0.5" />
    <path d="M0,600 L2560,600" stroke="#00a8ff" stroke-width="0.5" />
    <path d="M0,720 L2560,720" stroke="#00a8ff" stroke-width="0.5" />
    <path d="M0,840 L2560,840" stroke="#00a8ff" stroke-width="0.5" />
    <path d="M0,960 L2560,960" stroke="#00a8ff" stroke-width="0.5" />
    <path d="M0,1080 L2560,1080" stroke="#00a8ff" stroke-width="0.5" />
    <path d="M0,1200 L2560,1200" stroke="#00a8ff" stroke-width="0.5" />
    <path d="M0,1320 L2560,1320" stroke="#00a8ff" stroke-width="0.5" />
    
    <!-- Vertical lines -->
    <path d="M213,0 L213,1440" stroke="#00a8ff" stroke-width="0.5" />
    <path d="M426,0 L426,1440" stroke="#00a8ff" stroke-width="0.5" />
    <path d="M639,0 L639,1440" stroke="#00a8ff" stroke-width="0.5" />
    <path d="M852,0 L852,1440" stroke="#00a8ff" stroke-width="0.5" />
    <path d="M1065,0 L1065,1440" stroke="#00a8ff" stroke-width="0.5" />
    <path d="M1278,0 L1278,1440" stroke="#00a8ff" stroke-width="0.5" />
    <path d="M1491,0 L1491,1440" stroke="#00a8ff" stroke-width="0.5" />
    <path d="M1704,0 L1704,1440" stroke="#00a8ff" stroke-width="0.5" />
    <path d="M1917,0 L1917,1440" stroke="#00a8ff" stroke-width="0.5" />
    <path d="M2130,0 L2130,1440" stroke="#00a8ff" stroke-width="0.5" />
    <path d="M2343,0 L2343,1440" stroke="#00a8ff" stroke-width="0.5" />
  </g>
  
  <!-- Safe area indicator (invisible in final version) -->
  <rect x="507" y="508.5" width="1546" height="423" fill="none" stroke="#ffffff" stroke-width="1" stroke-dasharray="5,5" opacity="0.1" />
  
  <!-- Decorative elements - light streaks -->
  <g opacity="0.6">
    <path d="M0,720 Q1280,500 2560,720" stroke="#00c8ff" stroke-width="1" fill="none" opacity="0.4">
      <animate attributeName="opacity" values="0.3;0.7;0.3" dur="6s" repeatCount="indefinite" />
    </path>
    <path d="M0,760 Q1280,980 2560,760" stroke="#bf00ff" stroke-width="1" fill="none" opacity="0.2">
      <animate attributeName="opacity" values="0.1;0.5;0.1" dur="8s" repeatCount="indefinite" />
    </path>
    <path d="M0,680 Q640,500 1280,680 Q1920,860 2560,680" stroke="#00ffea" stroke-width="1" fill="none" opacity="0.3">
      <animate attributeName="opacity" values="0.2;0.6;0.2" dur="7s" repeatCount="indefinite" />
    </path>
  </g>
  
  <!-- Glowing Accent Lines -->
  <g>
    <path d="M507,560 H 2053" stroke="#00c8ff" stroke-width="2" opacity="0.6">
      <animate attributeName="opacity" values="0.3;0.8;0.3" dur="5s" repeatCount="indefinite" />
    </path>
    <path d="M507,880 H 2053" stroke="#00c8ff" stroke-width="2" opacity="0.6">
      <animate attributeName="opacity" values="0.3;0.8;0.3" dur="5s" repeatCount="indefinite" />
    </path>
  </g>
  
  <!-- Data visualization elements -->
  <!-- Graph 1 - Line chart -->
  <g transform="translate(380, 800) scale(0.6)" opacity="0.8" filter="url(#cyanGlow)">
    <polyline points="0,100 50,75 100,90 150,40 200,60 250,20 300,50" fill="none" stroke="#00ffea" stroke-width="3">
      <animate attributeName="opacity" values="0.7;1;0.7" dur="5s" repeatCount="indefinite" />
    </polyline>
    <line x1="0" y1="100" x2="300" y2="100" stroke="#666" stroke-width="1" opacity="0.5" />
    <circle cx="0" cy="100" r="4" fill="#00ffea" />
    <circle cx="50" cy="75" r="4" fill="#00ffea" />
    <circle cx="100" cy="90" r="4" fill="#00ffea" />
    <circle cx="150" cy="40" r="4" fill="#00ffea" />
    <circle cx="200" cy="60" r="4" fill="#00ffea" />
    <circle cx="250" cy="20" r="4" fill="#00ffea" />
    <circle cx="300" cy="50" r="4" fill="#00ffea" />
  </g>
  
  <!-- Graph 2 - Bar chart -->
  <g transform="translate(1880, 880) scale(0.6)" opacity="0.8" filter="url(#purpleGlow)">
    <rect x="0" y="60" width="30" height="40" fill="#bf00ff" opacity="0.7">
      <animate attributeName="height" values="40;45;40" dur="4s" repeatCount="indefinite" />
    </rect>
    <rect x="40" y="30" width="30" height="70" fill="#bf00ff" opacity="0.7">
      <animate attributeName="height" values="70;75;70" dur="4s" repeatCount="indefinite" />
    </rect>
    <rect x="80" y="50" width="30" height="50" fill="#bf00ff" opacity="0.7">
      <animate attributeName="height" values="50;55;50" dur="4s" repeatCount="indefinite" />
    </rect>
    <rect x="120" y="10" width="30" height="90" fill="#bf00ff" opacity="0.7">
      <animate attributeName="height" values="90;95;90" dur="4s" repeatCount="indefinite" />
    </rect>
    <rect x="160" y="40" width="30" height="60" fill="#bf00ff" opacity="0.7">
      <animate attributeName="height" values="60;65;60" dur="4s" repeatCount="indefinite" />
    </rect>
    <line x1="0" y1="100" x2="190" y2="100" stroke="#666" stroke-width="1" opacity="0.5" />
  </g>
  
  <!-- AI Neural network visualization -->
  <g transform="translate(500, 450) scale(0.4)" opacity="0.7" filter="url(#blueGlow)">
    <!-- Input layer -->
    <circle cx="0" cy="0" r="15" fill="#0099ff">
      <animate attributeName="opacity" values="0.7;1;0.7" dur="3s" repeatCount="indefinite" />
    </circle>
    <circle cx="0" cy="80" r="15" fill="#0099ff">
      <animate attributeName="opacity" values="0.7;1;0.7" dur="3.5s" repeatCount="indefinite" />
    </circle>
    <circle cx="0" cy="160" r="15" fill="#0099ff">
      <animate attributeName="opacity" values="0.7;1;0.7" dur="4s" repeatCount="indefinite" />
    </circle>
    <circle cx="0" cy="240" r="15" fill="#0099ff">
      <animate attributeName="opacity" values="0.7;1;0.7" dur="4.5s" repeatCount="indefinite" />
    </circle>
    
    <!-- Hidden layer 1 -->
    <circle cx="150" cy="-40" r="15" fill="#0099ff">
      <animate attributeName="opacity" values="0.7;1;0.7" dur="3.2s" repeatCount="indefinite" />
    </circle>
    <circle cx="150" cy="40" r="15" fill="#0099ff">
      <animate attributeName="opacity" values="0.7;1;0.7" dur="3.7s" repeatCount="indefinite" />
    </circle>
    <circle cx="150" cy="120" r="15" fill="#0099ff">
      <animate attributeName="opacity" values="0.7;1;0.7" dur="4.2s" repeatCount="indefinite" />
    </circle>
    <circle cx="150" cy="200" r="15" fill="#0099ff">
      <animate attributeName="opacity" values="0.7;1;0.7" dur="4.7s" repeatCount="indefinite" />
    </circle>
    <circle cx="150" cy="280" r="15" fill="#0099ff">
      <animate attributeName="opacity" values="0.7;1;0.7" dur="5.2s" repeatCount="indefinite" />
    </circle>
    
    <!-- Hidden layer 2 -->
    <circle cx="300" cy="0" r="15" fill="#0099ff">
      <animate attributeName="opacity" values="0.7;1;0.7" dur="3.4s" repeatCount="indefinite" />
    </circle>
    <circle cx="300" cy="80" r="15" fill="#0099ff">
      <animate attributeName="opacity" values="0.7;1;0.7" dur="3.9s" repeatCount="indefinite" />
    </circle>
    <circle cx="300" cy="160" r="15" fill="#0099ff">
      <animate attributeName="opacity" values="0.7;1;0.7" dur="4.4s" repeatCount="indefinite" />
    </circle>
    <circle cx="300" cy="240" r="15" fill="#0099ff">
      <animate attributeName="opacity" values="0.7;1;0.7" dur="4.9s" repeatCount="indefinite" />
    </circle>
    
    <!-- Output layer -->
    <circle cx="450" cy="40" r="15" fill="#0099ff">
      <animate attributeName="opacity" values="0.7;1;0.7" dur="3.6s" repeatCount="indefinite" />
    </circle>
    <circle cx="450" cy="120" r="15" fill="#0099ff">
      <animate attributeName="opacity" values="0.7;1;0.7" dur="4.1s" repeatCount="indefinite" />
    </circle>
    <circle cx="450" cy="200" r="15" fill="#0099ff">
      <animate attributeName="opacity" values="0.7;1;0.7" dur="4.6s" repeatCount="indefinite" />
    </circle>
    
    <!-- Connections -->
    <g stroke="#0099ff" stroke-width="2" opacity="0.4">
      <!-- Connect input to hidden 1 -->
      <line x1="0" y1="0" x2="150" y2="-40">
        <animate attributeName="opacity" values="0.2;0.5;0.2" dur="3s" repeatCount="indefinite" />
      </line>
      <line x1="0" y1="0" x2="150" y2="40">
        <animate attributeName="opacity" values="0.2;0.5;0.2" dur="3.5s" repeatCount="indefinite" />
      </line>
      <line x1="0" y1="0" x2="150" y2="120">
        <animate attributeName="opacity" values="0.2;0.5;0.2" dur="4s" repeatCount="indefinite" />
      </line>
      <line x1="0" y1="0" x2="150" y2="200">
        <animate attributeName="opacity" values="0.2;0.5;0.2" dur="4.5s" repeatCount="indefinite" />
      </line>
      <line x1="0" y1="0" x2="150" y2="280">
        <animate attributeName="opacity" values="0.2;0.5;0.2" dur="5s" repeatCount="indefinite" />
      </line>
      
      <line x1="0" y1="80" x2="150" y2="-40" />
      <line x1="0" y1="80" x2="150" y2="40" />
      <line x1="0" y1="80" x2="150" y2="120" />
      <line x1="0" y1="80" x2="150" y2="200" />
      <line x1="0" y1="80" x2="150" y2="280" />
      
      <line x1="0" y1="160" x2="150" y2="-40" />
      <line x1="0" y1="160" x2="150" y2="40" />
      <line x1="0" y1="160" x2="150" y2="120" />
      <line x1="0" y1="160" x2="150" y2="200" />
      <line x1="0" y1="160" x2="150" y2="280" />
      
      <line x1="0" y1="240" x2="150" y2="-40" />
      <line x1="0" y1="240" x2="150" y2="40" />
      <line x1="0" y1="240" x2="150" y2="120" />
      <line x1="0" y1="240" x2="150" y2="200" />
      <line x1="0" y1="240" x2="150" y2="280" />
      
      <!-- Connect hidden 1 to hidden 2 -->
      <line x1="150" y1="-40" x2="300" y2="0">
        <animate attributeName="opacity" values="0.2;0.6;0.2" dur="3.2s" repeatCount="indefinite" />
      </line>
      <line x1="150" y1="-40" x2="300" y2="80" />
      <line x1="150" y1="-40" x2="300" y2="160" />
      <line x1="150" y1="-40" x2="300" y2="240" />
      
      <line x1="150" y1="40" x2="300" y2="0" />
      <line x1="150" y1="40" x2="300" y2="80" />
      <line x1="150" y1="40" x2="300" y2="160" />
      <line x1="150" y1="40" x2="300" y2="240" />
      
      <line x1="150" y1="120" x2="300" y2="0" />
      <line x1="150" y1="120" x2="300" y2="80" />
      <line x1="150" y1="120" x2="300" y2="160" />
      <line x1="150" y1="120" x2="300" y2="240" />
      
      <line x1="150" y1="200" x2="300" y2="0" />
      <line x1="150" y1="200" x2="300" y2="80" />
      <line x1="150" y1="200" x2="300" y2="160" />
      <line x1="150" y1="200" x2="300" y2="240" />
      
      <line x1="150" y1="280" x2="300" y2="0" />
      <line x1="150" y1="280" x2="300" y2="80" />
      <line x1="150" y1="280" x2="300" y2="160" />
      <line x1="150" y1="280" x2="300" y2="240" />
      
      <!-- Connect hidden 2 to output -->
      <line x1="300" y1="0" x2="450" y2="40">
        <animate attributeName="opacity" values="0.2;0.7;0.2" dur="3.4s" repeatCount="indefinite" />
      </line>
      <line x1="300" y1="0" x2="450" y2="120" />
      <line x1="300" y1="0" x2="450" y2="200" />
      
      <line x1="300" y1="80" x2="450" y2="40" />
      <line x1="300" y1="80" x2="450" y2="120" />
      <line x1="300" y1="80" x2="450" y2="200" />
      
      <line x1="300" y1="160" x2="450" y2="40" />
      <line x1="300" y1="160" x2="450" y2="120" />
      <line x1="300" y1="160" x2="450" y2="200" />
      
      <line x1="300" y1="240" x2="450" y2="40" />
      <line x1="300" y1="240" x2="450" y2="120" />
      <line x1="300" y1="240" x2="450" y2="200" />
    </g>
  </g>
  
  <!-- AI Network visualization (different style) -->
  <g transform="translate(1900, 450) scale(0.4)" opacity="0.7" filter="url(#purpleGlow)">
    <!-- Nodes -->
    <circle cx="0" cy="100" r="12" fill="#bf00ff">
      <animate attributeName="opacity" values="0.7;1;0.7" dur="5s" repeatCount="indefinite" />
    </circle>
    <circle cx="80" cy="40" r="12" fill="#bf00ff">
      <animate attributeName="opacity" values="0.7;1;0.7" dur="5.5s" repeatCount="indefinite" />
    </circle>
    <circle cx="80" cy="160" r="12" fill="#bf00ff">
      <animate attributeName="opacity" values="0.7;1;0.7" dur="6s" repeatCount="indefinite" />
    </circle>
    <circle cx="160" cy="0" r="12" fill="#bf00ff">
      <animate attributeName="opacity" values="0.7;1;0.7" dur="6.5s" repeatCount="indefinite" />
    </circle>
    <circle cx="160" cy="100" r="12" fill="#bf00ff">
      <animate attributeName="opacity" values="0.7;1;0.7" dur="7s" repeatCount="indefinite" />
    </circle>
    <circle cx="160" cy="200" r="12" fill="#bf00ff">
      <animate attributeName="opacity" values="0.7;1;0.7" dur="7.5s" repeatCount="indefinite" />
    </circle>
    <circle cx="240" cy="40" r="12" fill="#bf00ff">
      <animate attributeName="opacity" values="0.7;1;0.7" dur="8s" repeatCount="indefinite" />
    </circle>
    <circle cx="240" cy="160" r="12" fill="#bf00ff">
      <animate attributeName="opacity" values="0.7;1;0.7" dur="8.5s" repeatCount="indefinite" />
    </circle>
    <circle cx="320" cy="100" r="12" fill="#bf00ff">
      <animate attributeName="opacity" values="0.7;1;0.7" dur="9s" repeatCount="indefinite" />
    </circle>
    
    <!-- Connections -->
    <g stroke="#bf00ff" stroke-width="2" opacity="0.5">
      <line x1="0" y1="100" x2="80" y2="40">
        <animate attributeName="opacity" values="0.3;0.7;0.3" dur="5s" repeatCount="indefinite" />
      </line>
      <line x1="0" y1="100" x2="80" y2="160">
        <animate attributeName="opacity" values="0.3;0.7;0.3" dur="5.5s" repeatCount="indefinite" />
      </line>
      
      <line x1="80" y1="40" x2="160" y2="0">
        <animate attributeName="opacity" values="0.3;0.7;0.3" dur="6s" repeatCount="indefinite" />
      </line>
      <line x1="80" y1="40" x2="160" y2="100">
        <animate attributeName="opacity" values="0.3;0.7;0.3" dur="6.5s" repeatCount="indefinite" />
      </line>
      
      <line x1="80" y1="160" x2="160" y2="100">
        <animate attributeName="opacity" values="0.3;0.7;0.3" dur="7s" repeatCount="indefinite" />
      </line>
      <line x1="80" y1="160" x2="160" y2="200">
        <animate attributeName="opacity" values="0.3;0.7;0.3" dur="7.5s" repeatCount="indefinite" />
      </line>
      
      <line x1="160" y1="0" x2="240" y2="40">
        <animate attributeName="opacity" values="0.3;0.7;0.3" dur="8s" repeatCount="indefinite" />
      </line>
      <line x1="160" y1="100" x2="240" y2="40">
        <animate attributeName="opacity" values="0.3;0.7;0.3" dur="8.5s" repeatCount="indefinite" />
      </line>
      <line x1="160" y1="100" x2="240" y2="160">
        <animate attributeName="opacity" values="0.3;0.7;0.3" dur="9s" repeatCount="indefinite" />
      </line>
      <line x1="160" y1="200" x2="240" y2="160">
        <animate attributeName="opacity" values="0.3;0.7;0.3" dur="9.5s" repeatCount="indefinite" />
      </line>
      
      <line x1="240" y1="40" x2="320" y2="100">
        <animate attributeName="opacity" values="0.3;0.7;0.3" dur="10s" repeatCount="indefinite" />
      </line>
      <line x1="240" y1="160" x2="320" y2="100">
        <animate attributeName="opacity" values="0.3;0.7;0.3" dur="10.5s" repeatCount="indefinite" />
      </line>
    </g>
  </g>
  
  <!-- Futuristic hexagonal logo frame -->
  <g transform="translate(1280, 720)" filter="url(#titleGlow)">
    <path d="M-360,-80 L-300,-180 L300,-180 L360,-80 L360,80 L300,180 L-300,180 L-360,80 Z" 
          fill="none" stroke="#4d28ff" stroke-width="3" opacity="0.7">
      <animate attributeName="opacity" values="0.5;0.9;0.5" dur="6s" repeatCount="indefinite" />
    </path>
  </g>
  
  <!-- Main Heading with animated glowing effect -->
  <g transform="translate(1280, 700)" text-anchor="middle" filter="url(#titleGlow)">
    <text font-family="'Orbitron', 'Segoe UI', Arial, sans-serif" font-size="120" font-weight="bold" fill="#FFFFFF">
      THE DATA DEN
      <animate attributeName="opacity" values="0.9;1;0.9" dur="4s" repeatCount="indefinite" />
    </text>
  </g>
  
  <!-- Tagline -->
  <g transform="translate(1280, 800)" text-anchor="middle" filter="url(#cyanGlow)">
    <text font-family="'Orbitron', 'Segoe UI', Arial, sans-serif" font-size="48" font-weight="300" fill="#FFFFFF">
      Master Data, AI &amp; Analytics
      <animate attributeName="opacity" values="0.8;1;0.8" dur="5s" repeatCount="indefinite" />
    </text>
  </g>
  
  <!-- Keywords around banner - without emojis, more fancy font -->
  <!-- Left side keywords -->
  <g transform="translate(400, 630)" filter="url(#whiteGlow)">
    <text font-family="'Orbitron', 'Segoe UI', Arial, sans-serif" font-size="30" fill="#FFFFFF">Data Science</text>
  </g>
  
  <g transform="translate(350, 730)" filter="url(#whiteGlow)">
    <text font-family="'Orbitron', 'Segoe UI', Arial, sans-serif" font-size="30" fill="#FFFFFF">Data Analytics</text>
  </g>
  
  <g transform="translate(500, 830)" filter="url(#whiteGlow)">
    <text font-family="'Orbitron', 'Segoe UI', Arial, sans-serif" font-size="30" fill="#FFFFFF">Python</text>
  </g>
  
  <!-- Right side keywords -->
  <g transform="translate(1730, 630)" filter="url(#whiteGlow)">
    <text font-family="'Orbitron', 'Segoe UI', Arial, sans-serif" font-size="30" fill="#FFFFFF">Machine Learning</text>
  </g>
  
  <g transform="translate(1800, 730)" filter="url(#whiteGlow)">
    <text font-family="'Orbitron', 'Segoe UI', Arial, sans-serif" font-size="30" fill="#FFFFFF">Power BI</text>
  </g>
  
  <g transform="translate(1750, 830)" filter="url(#whiteGlow)">
    <text font-family="'Orbitron', 'Segoe UI', Arial, sans-serif" font-size="30" fill="#FFFFFF">Tutorials</text>
  </g>
  
  <!-- Elegant tech decorations -->
  <!-- Tech circles with pulsing animation -->
  <g opacity="0.6">
    <circle cx="300" cy="600" r="8" fill="#00c8ff">
      <animate attributeName="r" values="8;12;8" dur="4s" repeatCount="indefinite" />
      <animate attributeName="opacity" values="0.4;0.8;0.4" dur="4s" repeatCount="indefinite" />
    </circle>
    <circle cx="2260" cy="600" r="8" fill="#00c8ff">
      <animate attributeName="r" values="8;12;8" dur="5s" repeatCount="indefinite" />
      <animate attributeName="opacity" values="0.4;0.8;0.4" dur="5s" repeatCount="indefinite" />
    </circle>
    <circle cx="300" cy="840" r="8" fill="#bf00ff">
      <animate attributeName="r" values="8;12;8" dur="6s" repeatCount="indefinite" />
      <animate attributeName="opacity" values="0.4;0.8;0.4" dur="6s" repeatCount="indefinite" />
    </circle>
    <circle cx="2260" cy="840" r="8" fill="#bf00ff">
      <animate attributeName="r" values="8;12;8" dur="7s" repeatCount="indefinite" />
      <animate attributeName="opacity" values="0.4;0.8;0.4" dur="7s" repeatCount="indefinite" />
    </circle>
  </g>
  
  <!-- Tech-inspired corner decorations -->
  <g opacity="0.8">
    <!-- Top left corner -->
    <path d="M0,0 L100,0 L100,10 L10,10 L10,100 L0,100 Z" fill="#00c8ff" opacity="0.6">
      <animate attributeName="opacity" values="0.4;0.8;0.4" dur="5s" repeatCount="indefinite" />
    </path>
    
    <!-- Top right corner -->
    <path d="M2560,0 L2460,0 L2460,10 L2550,10 L2550,100 L2560,100 Z" fill="#00c8ff" opacity="0.6">
      <animate attributeName="opacity" values="0.4;0.8;0.4" dur="5s" repeatCount="indefinite" />
    </path>
    
    <!-- Bottom left corner -->
    <path d="M0,1440 L100,1440 L100,1430 L10,1430 L10,1340 L0,1340 Z" fill="#00c8ff" opacity="0.6">
      <animate attributeName="opacity" values="0.4;0.8;0.4" dur="5s" repeatCount="indefinite" />
    </path>
    
    <!-- Bottom right corner -->
    <path d="M2560,1440 L2460,1440 L2460,1430 L2550,1430 L2550,1340 L2560,1340 Z" fill="#00c8ff" opacity="0.6">
      <animate attributeName="opacity" values="0.4;0.8;0.4" dur="5s" repeatCount="indefinite" />
    </path>
  </g>
</svg>